<svg width="400" height="260" viewBox="0 0 400 260" xmlns="http://www.w3.org/2000/svg">
  <defs>
    <linearGradient id="lBg" x1="0%" y1="0%" x2="100%" y2="100%">
      <stop offset="0%" stop-color="#3b82f6" />
      <stop offset="100%" stop-color="#172554" />
    </linearGradient>
  </defs>

  <rect width="400" height="260" fill="url(#lBg)" />

  <circle cx="340" cy="60" r="70" fill="#ffffff" opacity="0.06" />

  <!-- scales of justice -->
  <g transform="translate(200,150)" stroke="#ffffff" stroke-width="6" fill="none" stroke-linecap="round">
    <line x1="0" y1="-70" x2="0" y2="40" />
    <line x1="-90" y1="-46" x2="90" y2="-46" />
    <line x1="-90" y1="-46" x2="-90" y2="-10" />
    <line x1="90" y1="-46" x2="90" y2="-10" />

    <path d="M-120 -10 a30 22 0 0 0 60 0 z" fill="#ffffff" stroke="none" />
    <path d="M60 -10 a30 22 0 0 0 60 0 z" fill="#ffffff" stroke="none" />
  </g>

  <rect x="160" y="88" width="80" height="14" rx="4" fill="#ffffff" />
  <rect x="140" y="40" width="120" height="150" fill="none" />

  <!-- base -->
  <rect x="150" y="188" width="100" height="12" rx="4" fill="#ffffff" />
  <rect x="130" y="204" width="140" height="12" rx="4" fill="#ffffff" />
</svg>
